<?xml version="1.0" encoding="UTF-8"?>
<svg xmlns:xlink="http://www.w3.org/1999/xlink" width="612pt" xmlns:inkscape="http://www.inkscape.org/namespaces/inkscape" viewBox="0 0 612 792" height="792pt" xmlns="http://www.w3.org/2000/svg" version="1.1">
 <defs>
  <path id="GlHack-Regular556" d="M1.31844 9.16984 L2.85156 9.16984 L2.85156 3.94047 L1.68953 5.26359 L1.15234 4.60938 L2.84187 2.71 L3.82813 2.71 L3.82813 9.16984 L5.34187 9.16984 L5.34187 10 L1.31844 10 L1.31844 9.16984 Z"/>
  <path id="GlHack-Regular557" d="M0.742188 9.34563 C0.742188 9.22521 0.782865 9.12432 0.864219 9.04297 C1.04984 8.84766 1.26958 8.61573 1.52344 8.34719 C1.7774 8.07865 2.04922 7.78646 2.33891 7.47063 C2.56026 7.22979 2.72708 7.04833 2.83937 6.92625 C2.95167 6.80417 3.03708 6.70979 3.09563 6.64312 C3.15427 6.57635 3.21453 6.50552 3.27641 6.43063 C3.44891 6.22229 3.58641 6.0449 3.68891 5.89844 C3.79151 5.75198 3.87536 5.60714 3.94047 5.46391 C4.05443 5.20995 4.11141 4.95604 4.11141 4.70219 C4.11141 4.29854 3.99255 3.98276 3.75484 3.75484 C3.51401 3.5237 3.18365 3.40813 2.76375 3.40813 C2.18104 3.40813 1.52672 3.62464 0.800781 4.05766 L0.800781 3.06156 C1.13286 2.90198 1.46328 2.78151 1.79203 2.70016 C2.11432 2.6188 2.43333 2.57813 2.74906 2.57813 C3.0876 2.57813 3.40495 2.6237 3.70109 2.71484 C3.99734 2.80599 4.25615 2.94922 4.4775 3.14453 C4.67281 3.31703 4.82906 3.52781 4.94625 3.77687 C5.06344 4.02583 5.12203 4.30656 5.12203 4.61906 C5.12203 4.93813 5.05042 5.2588 4.90719 5.58109 C4.83563 5.7438 4.7437 5.9025 4.63141 6.05719 C4.51911 6.21177 4.37505 6.39484 4.19922 6.60641 C4.10484 6.71714 3.99255 6.84573 3.86234 6.99219 C3.73214 7.13865 3.58078 7.30464 3.40828 7.49016 C3.28453 7.6237 3.16974 7.74417 3.06391 7.85156 C2.95818 7.95896 2.84672 8.07047 2.72953 8.18609 C2.61234 8.30161 2.47807 8.43672 2.32672 8.59141 C2.17536 8.74599 1.99063 8.9388 1.7725 9.16984 L5.17094 9.16984 L5.17094 10 L0.742188 10 L0.742188 9.34563 Z"/>
  <path id="GlHack-Regular583" d="M3.02734 6.21094 C2.80599 6.21094 2.6188 6.13443 2.46578 5.98141 C2.31286 5.82839 2.23641 5.62984 2.23641 5.38578 C2.23641 5.14161 2.31286 4.94302 2.46578 4.79 C2.6188 4.63698 2.80599 4.56047 3.02734 4.56047 C3.2487 4.56047 3.43589 4.63698 3.58891 4.79 C3.74193 4.94302 3.81844 5.14161 3.81844 5.38578 C3.81844 5.62984 3.74193 5.82839 3.58891 5.98141 C3.43589 6.13443 3.2487 6.21094 3.02734 6.21094 L3.02734 6.21094 Z M3.02734 9.70703 C2.80599 9.70703 2.6188 9.63052 2.46578 9.4775 C2.31286 9.32448 2.23641 9.12594 2.23641 8.88188 C2.23641 8.63771 2.31286 8.43911 2.46578 8.28609 C2.6188 8.13307 2.80599 8.05656 3.02734 8.05656 C3.2487 8.05656 3.43589 8.13307 3.58891 8.28609 C3.74193 8.43911 3.81844 8.63771 3.81844 8.88188 C3.81844 9.12594 3.74193 9.32448 3.58891 9.4775 C3.43589 9.63052 3.2487 9.70703 3.02734 9.70703 Z"/>
  <path id="GlHack-Regular555" d="M3.00781 10.1416 C2.22656 10.1416 1.63901 9.82255 1.24516 9.18453 C0.847969 8.54328 0.649375 7.60255 0.649375 6.36234 C0.649375 5.1188 0.847969 4.17641 1.24516 3.53516 C1.63901 2.89714 2.22656 2.57813 3.00781 2.57813 C3.78906 2.57813 4.37828 2.89714 4.77547 3.53516 C4.97078 3.84766 5.11885 4.2375 5.21969 4.70469 C5.32062 5.17177 5.37109 5.72432 5.37109 6.36234 C5.37109 7.00036 5.32062 7.55214 5.21969 8.01766 C5.11885 8.48307 4.97078 8.87203 4.77547 9.18453 C4.37505 9.82255 3.78583 10.1416 3.00781 10.1416 L3.00781 10.1416 Z M3.00781 9.36031 C3.47333 9.36031 3.81839 9.11292 4.04297 8.61812 C4.26755 8.12656 4.37984 7.37464 4.37984 6.36234 C4.37984 5.34672 4.26755 4.59474 4.04297 4.10641 C3.81839 3.60839 3.47333 3.35938 3.00781 3.35938 C2.54885 3.35938 2.20708 3.60677 1.9825 4.10156 C1.86854 4.34573 1.78307 4.65255 1.72609 5.02203 C1.66911 5.39141 1.64063 5.83818 1.64063 6.36234 C1.64063 7.3812 1.75458 8.13312 1.9825 8.61812 C2.21031 9.11292 2.55208 9.36031 3.00781 9.36031 L3.00781 9.36031 Z M3.01766 8.06641 C2.91349 8.06641 2.83292 7.99641 2.77594 7.85641 C2.71896 7.71641 2.67094 7.55203 2.63187 7.36328 C2.59927 7.21349 2.5724 7.03281 2.55125 6.82125 C2.5301 6.60969 2.51953 6.44854 2.51953 6.33781 C2.51953 6.25969 2.52604 6.11974 2.53906 5.91797 C2.55208 5.71609 2.57813 5.52568 2.61719 5.34672 C2.71156 4.8812 2.83854 4.64844 2.99812 4.64844 C3.08927 4.64844 3.16656 4.71031 3.23 4.83406 C3.29344 4.95771 3.34797 5.13344 3.39359 5.36125 C3.42609 5.52406 3.45208 5.70641 3.47156 5.90828 C3.49115 6.11005 3.50094 6.26625 3.50094 6.37688 C3.50094 6.44198 3.49526 6.57057 3.48391 6.76266 C3.47255 6.95474 3.45057 7.15167 3.41797 7.35344 C3.33661 7.82875 3.20318 8.06641 3.01766 8.06641 Z"/>
  <path id="GlHack-Regular558" d="M2.76375 10.1416 C2.6075 10.1416 2.44391 10.1342 2.27297 10.1195 C2.10203 10.1049 1.9287 10.0814 1.75297 10.0489 C1.60318 10.0229 1.43875 9.98703 1.25969 9.94141 C1.08073 9.89578 0.903333 9.84208 0.7275 9.78031 L0.7275 8.78422 C0.893542 8.8688 1.0563 8.94531 1.21578 9.01375 C1.37536 9.08208 1.53979 9.13901 1.70906 9.18453 C1.87177 9.22682 2.03203 9.25859 2.18984 9.27984 C2.34776 9.30099 2.50813 9.31156 2.67094 9.31156 C3.21458 9.31156 3.62964 9.18948 3.91609 8.94531 C4.20578 8.69792 4.35062 8.35125 4.35062 7.90531 C4.35062 7.46906 4.2074 7.12724 3.92094 6.87984 C3.63448 6.63245 3.24057 6.50875 2.73922 6.50875 L1.98734 6.50875 L1.98734 5.69828 L2.73922 5.69828 C3.19828 5.69828 3.55313 5.59896 3.80375 5.40031 C4.05438 5.205 4.17969 4.92344 4.17969 4.55563 C4.17969 4.18781 4.0625 3.90464 3.82813 3.70609 C3.60031 3.50745 3.25854 3.40813 2.80281 3.40813 C2.5326 3.40813 2.23797 3.44068 1.91891 3.50578 C1.60641 3.56766 1.28255 3.66531 0.947344 3.79875 L0.947344 2.89063 C1.34443 2.78646 1.69599 2.70833 2.00203 2.65625 C2.29172 2.60417 2.56677 2.57813 2.82719 2.57813 C3.16896 2.57813 3.48385 2.62208 3.77188 2.71 C4.06 2.79781 4.31151 2.93125 4.52641 3.11031 C4.9463 3.45865 5.15625 3.92901 5.15625 4.52141 C5.15625 4.73307 5.12776 4.92193 5.07078 5.08797 C5.0138 5.25391 4.93161 5.40198 4.82422 5.53219 C4.60286 5.79583 4.27734 5.98464 3.84766 6.09859 C4.3262 6.22557 4.6924 6.45021 4.94625 6.7725 C5.07979 6.94177 5.17667 7.12896 5.23688 7.33406 C5.29708 7.53906 5.32719 7.75875 5.32719 7.99313 C5.32719 8.65719 5.10422 9.1813 4.65828 9.56547 C4.43693 9.75422 4.16917 9.89745 3.855 9.99516 C3.54083 10.0928 3.17708 10.1416 2.76375 10.1416 Z"/>
  <path id="GlHack-Regular559" d="M3.58891 8.26172 L0.498125 8.26172 L0.498125 7.32906 L3.42781 2.71 L4.57031 2.71 L4.57031 7.46094 L5.54203 7.46094 L5.54203 8.26172 L4.57031 8.26172 L4.57031 10 L3.58891 10 L3.58891 8.26172 L3.58891 8.26172 Z M3.58891 7.46094 L3.58891 3.60844 L1.28906 7.46094 L3.58891 7.46094 Z"/>
  <path id="GlHack-Regular560" d="M2.56344 10.1416 C2.41698 10.1416 2.25339 10.1351 2.07266 10.122 C1.89203 10.109 1.72198 10.0895 1.5625 10.0634 C1.39646 10.0374 1.24344 10.0048 1.10344 9.96578 C0.963542 9.92672 0.82849 9.88115 0.698281 9.82906 L0.698281 8.82813 C1.00422 8.99083 1.30531 9.11125 1.60156 9.18938 C1.90427 9.27083 2.20536 9.31156 2.50484 9.31156 C3.07453 9.31156 3.5026 9.16833 3.78906 8.88188 C4.08208 8.59208 4.22859 8.18844 4.22859 7.67094 C4.22859 7.38771 4.18786 7.14521 4.10641 6.94344 C4.02505 6.74156 3.91438 6.57391 3.77438 6.44047 C3.63771 6.31026 3.46193 6.20609 3.24703 6.12797 C3.03224 6.04984 2.77672 6.01078 2.48047 6.01078 C2.22661 6.01078 1.97599 6.04005 1.72859 6.09859 C1.47464 6.16047 1.23536 6.25161 1.01078 6.37203 L1.01078 2.71 L4.70219 2.71 L4.70219 3.54 L1.90922 3.54 L1.90922 5.33203 C2.04922 5.27995 2.19083 5.24089 2.33406 5.21484 C2.45771 5.19203 2.60094 5.18063 2.76375 5.18063 C3.1576 5.18063 3.50427 5.24089 3.80375 5.36141 C4.10323 5.48182 4.35552 5.64453 4.56062 5.84953 C5 6.29224 5.21969 6.89286 5.21969 7.65141 C5.21969 8.42932 4.99021 9.03964 4.53125 9.48234 C4.30667 9.69724 4.0324 9.86083 3.70844 9.97312 C3.38458 10.0854 3.00292 10.1416 2.56344 10.1416 Z"/>
  <path id="GlHack-Regular561" d="M3.09078 10.1416 C2.64484 10.1416 2.27375 10.0627 1.9775 9.90484 C1.68135 9.74693 1.43724 9.51984 1.24516 9.22359 C1.04005 8.90464 0.889479 8.51406 0.793438 8.05187 C0.697396 7.58958 0.649375 7.06057 0.649375 6.46484 C0.649375 5.14974 0.886198 4.17318 1.35984 3.53516 C1.83349 2.89714 2.5163 2.57813 3.40828 2.57813 C3.54172 2.57813 3.67109 2.58464 3.79641 2.59766 C3.92172 2.61068 4.03646 2.62859 4.14063 2.65141 C4.27083 2.67745 4.3937 2.71 4.50922 2.74906 C4.62484 2.78812 4.73474 2.8288 4.83891 2.87109 L4.83891 3.77922 C4.63057 3.65557 4.41245 3.56281 4.18453 3.50094 C4.07068 3.46844 3.95188 3.44484 3.82813 3.43016 C3.70448 3.41547 3.58568 3.40813 3.47172 3.40813 C2.83693 3.40813 2.36005 3.6425 2.04109 4.11125 C1.7188 4.58656 1.55766 5.27995 1.55766 6.19141 C1.71391 5.86589 1.93036 5.61521 2.20703 5.43938 C2.48703 5.26687 2.81745 5.18063 3.19828 5.18063 C3.8688 5.18063 4.39854 5.39714 4.7875 5.83016 C5.17656 6.26307 5.37109 6.87016 5.37109 7.65141 C5.37109 8.44568 5.17417 9.05927 4.78031 9.49219 C4.38646 9.9251 3.82328 10.1416 3.09078 10.1416 L3.09078 10.1416 Z M3.09078 9.37016 C3.5238 9.37016 3.84932 9.22526 4.06734 8.93547 C4.2887 8.64578 4.39938 8.22099 4.39938 7.66109 C4.39938 7.09797 4.2887 6.67156 4.06734 6.38187 C3.95349 6.23208 3.81354 6.12302 3.6475 6.05469 C3.48146 5.98635 3.29755 5.95219 3.09578 5.95219 C2.86786 5.95219 2.67089 5.99208 2.50484 6.07188 C2.33891 6.15156 2.20057 6.26141 2.08984 6.40141 C1.97589 6.54464 1.88719 6.72125 1.82375 6.93125 C1.76031 7.14115 1.72859 7.38443 1.72859 7.66109 C1.72859 7.93776 1.76031 8.18109 1.82375 8.39109 C1.88719 8.60109 1.97589 8.77771 2.08984 8.92094 C2.20057 9.06083 2.33891 9.17068 2.50484 9.25047 C2.67089 9.33026 2.8662 9.37016 3.09078 9.37016 Z"/>
  <path id="GlHack-Regular562" d="M4.17 3.54 L0.67875 3.54 L0.67875 2.71 L5.26859 2.71 L5.26859 3.12984 L2.66109 10 L1.63094 10 L4.17 3.54 Z"/>
  <path id="GlHack-Regular563" d="M3.00297 10.1416 C2.26401 10.1416 1.68536 9.95927 1.26703 9.59469 C0.848802 9.2301 0.639687 8.71417 0.639687 8.04688 C0.639687 7.52927 0.769896 7.10609 1.03031 6.77734 C1.2875 6.45182 1.66021 6.23536 2.14844 6.12797 C1.9499 6.07911 1.76599 6.00422 1.59672 5.90328 C1.42745 5.80234 1.28422 5.67865 1.16703 5.53219 C1.04328 5.37917 0.952917 5.21151 0.895938 5.02922 C0.839063 4.84693 0.810625 4.65328 0.810625 4.44828 C0.810625 3.88505 1.00755 3.43094 1.40141 3.08594 C1.59349 2.9199 1.82214 2.79375 2.08734 2.7075 C2.35266 2.62125 2.65948 2.57813 3.00781 2.57813 C3.68812 2.57813 4.22526 2.7474 4.61922 3.08594 C5.01307 3.42125 5.21 3.87698 5.21 4.45313 C5.21 4.88281 5.09359 5.24172 4.86078 5.52984 C4.62807 5.81786 4.29849 6.01724 3.87203 6.12797 C4.36359 6.23536 4.73797 6.45182 4.99516 6.77734 C5.25234 7.10286 5.38094 7.52276 5.38094 8.03703 C5.38094 8.37891 5.32641 8.67922 5.21734 8.93797 C5.10828 9.19672 4.95281 9.41401 4.75094 9.58984 C4.32781 9.95766 3.74516 10.1416 3.00297 10.1416 L3.00297 10.1416 Z M3.00781 5.76172 C3.405 5.76172 3.70776 5.65917 3.91609 5.45406 C4.12443 5.24896 4.22859 4.95109 4.22859 4.56047 C4.22859 4.16339 4.12604 3.86068 3.92094 3.65234 C3.7126 3.44401 3.40823 3.33984 3.00781 3.33984 C2.61396 3.33984 2.31286 3.44401 2.10453 3.65234 C1.8962 3.86068 1.79203 4.16339 1.79203 4.56047 C1.79203 4.95109 1.8962 5.24896 2.10453 5.45406 C2.31286 5.65917 2.61396 5.76172 3.00781 5.76172 L3.00781 5.76172 Z M3.0225 9.37016 C3.45542 9.37016 3.79151 9.24563 4.03078 8.99656 C4.27005 8.7475 4.38969 8.40161 4.38969 7.95891 C4.38969 7.71807 4.35792 7.51141 4.29438 7.33891 C4.23094 7.1663 4.14224 7.02307 4.02828 6.90922 C3.78422 6.66182 3.44406 6.53812 3.00781 6.53812 C2.57167 6.53812 2.23313 6.66016 1.99219 6.90422 C1.75135 7.15161 1.63094 7.49833 1.63094 7.94437 C1.63094 8.39354 1.75135 8.74344 1.99219 8.99406 C2.23958 9.24479 2.58302 9.37016 3.0225 9.37016 Z"/>
  <path id="GlHack-Regular564" d="M2.57813 10.1416 C2.45771 10.1416 2.33484 10.1359 2.20953 10.1245 C2.08422 10.1132 1.96458 10.0945 1.85062 10.0684 C1.63573 10.0228 1.40297 9.94953 1.15234 9.84859 L1.15234 8.94047 C1.35745 9.06089 1.57557 9.15203 1.80672 9.21391 C2.04755 9.27901 2.28677 9.31156 2.52438 9.31156 C3.15271 9.31156 3.62797 9.07552 3.95016 8.60344 C4.26922 8.12823 4.42875 7.43651 4.42875 6.52828 C4.35385 6.69432 4.25943 6.84083 4.14547 6.96781 C4.03161 7.09469 3.9112 7.19885 3.78422 7.28031 C3.51401 7.45281 3.1787 7.53906 2.77828 7.53906 C2.11422 7.53906 1.58854 7.3226 1.20125 6.88969 C0.813854 6.45344 0.620156 5.8463 0.620156 5.06828 C0.620156 4.68422 0.668177 4.33516 0.764219 4.02109 C0.86026 3.70693 1.01078 3.43917 1.21578 3.21781 C1.60318 2.79135 2.16474 2.57813 2.90047 2.57813 C3.34641 2.57813 3.71745 2.65708 4.01359 2.815 C4.30984 2.97281 4.55401 3.19984 4.74609 3.49609 C4.95443 3.82161 5.10578 4.21714 5.20016 4.68266 C5.29464 5.14807 5.34187 5.67375 5.34187 6.25969 C5.34187 6.90427 5.28568 7.46906 5.17328 7.95406 C5.06099 8.43906 4.88281 8.84599 4.63875 9.17484 C4.16021 9.81932 3.47333 10.1416 2.57813 10.1416 L2.57813 10.1416 Z M2.89547 6.7675 C3.12339 6.7675 3.32031 6.72766 3.48625 6.64797 C3.65229 6.56818 3.79068 6.45828 3.90141 6.31828 C4.13901 6.0188 4.25781 5.59891 4.25781 5.05859 C4.25781 4.51818 4.13901 4.09823 3.90141 3.79875 C3.79068 3.65885 3.65229 3.54901 3.48625 3.46922 C3.32031 3.38943 3.12339 3.34953 2.89547 3.34953 C2.6937 3.34953 2.50979 3.38375 2.34375 3.45219 C2.17771 3.52052 2.03776 3.62953 1.92391 3.77922 C1.70255 4.06901 1.59187 4.49547 1.59187 5.05859 C1.59187 5.62172 1.70255 6.04812 1.92391 6.33781 C2.1387 6.62427 2.46255 6.7675 2.89547 6.7675 Z"/>
 </defs>
 <g inkscape:label="Background" id="Background" inkscape:groupmode="layer"/>
 <g inkscape:label="Lines" id="Lines" inkscape:groupmode="layer">
  <path style="stroke-width:1; stroke-linecap:butt; stroke-linejoin:miter; stroke-dasharray:1, 1; stroke:#d9d9d9;" transform="translate(54, 55.0785)" d="M 0 0 L 471.24 0"/>
  <path style="stroke-width:1.0008; stroke-linecap:butt; stroke-linejoin:miter; stroke-dasharray:none; stroke:#d9d9d9;" transform="translate(54, 68.9733)" d="M 0 0 L 471.24 0"/>
  <path style="stroke-width:1; stroke-linecap:butt; stroke-linejoin:miter; stroke-dasharray:1, 1; stroke:#d9d9d9;" transform="translate(54, 82.868)" d="M 0 0 L 471.24 0"/>
  <path style="stroke-width:1.0008; stroke-linecap:butt; stroke-linejoin:miter; stroke-dasharray:none; stroke:#d9d9d9;" transform="translate(54, 96.7628)" d="M 0 0 L 471.24 0"/>
  <path style="stroke-width:1; stroke-linecap:butt; stroke-linejoin:miter; stroke-dasharray:1, 1; stroke:#d9d9d9;" transform="translate(54, 110.657)" d="M 0 0 L 471.24 0"/>
  <path style="stroke-width:1.0008; stroke-linecap:butt; stroke-linejoin:miter; stroke-dasharray:none; stroke:#d9d9d9;" transform="translate(54, 124.552)" d="M 0 0 L 471.24 0"/>
  <path style="stroke-width:1; stroke-linecap:butt; stroke-linejoin:miter; stroke-dasharray:1, 1; stroke:#d9d9d9;" transform="translate(54, 138.447)" d="M 0 0 L 471.24 0"/>
  <path style="stroke-width:1.0008; stroke-linecap:butt; stroke-linejoin:miter; stroke-dasharray:none; stroke:#d9d9d9;" transform="translate(54, 152.342)" d="M 0 0 L 471.24 0"/>
  <path style="stroke-width:1; stroke-linecap:butt; stroke-linejoin:miter; stroke-dasharray:1, 1; stroke:#d9d9d9;" transform="translate(54, 166.236)" d="M 0 0 L 471.24 0"/>
  <path style="stroke-width:1.0008; stroke-linecap:butt; stroke-linejoin:miter; stroke-dasharray:none; stroke:#d9d9d9;" transform="translate(54, 180.131)" d="M 0 0 L 471.24 0"/>
  <path style="stroke-width:1; stroke-linecap:butt; stroke-linejoin:miter; stroke-dasharray:1, 1; stroke:#d9d9d9;" transform="translate(54, 194.026)" d="M 0 0 L 471.24 0"/>
  <path style="stroke-width:1.0008; stroke-linecap:butt; stroke-linejoin:miter; stroke-dasharray:none; stroke:#d9d9d9;" transform="translate(54, 207.921)" d="M 0 0 L 471.24 0"/>
  <path style="stroke-width:1; stroke-linecap:butt; stroke-linejoin:miter; stroke-dasharray:1, 1; stroke:#d9d9d9;" transform="translate(54, 221.815)" d="M 0 0 L 471.24 0"/>
  <path style="stroke-width:1.0008; stroke-linecap:butt; stroke-linejoin:miter; stroke-dasharray:none; stroke:#d9d9d9;" transform="translate(54, 235.71)" d="M 0 0 L 471.24 0"/>
  <path style="stroke-width:1; stroke-linecap:butt; stroke-linejoin:miter; stroke-dasharray:1, 1; stroke:#d9d9d9;" transform="translate(54, 249.605)" d="M 0 0 L 471.24 0"/>
  <path style="stroke-width:1.0008; stroke-linecap:butt; stroke-linejoin:miter; stroke-dasharray:none; stroke:#d9d9d9;" transform="translate(54, 263.5)" d="M 0 0 L 471.24 0"/>
  <path style="stroke-width:1; stroke-linecap:butt; stroke-linejoin:miter; stroke-dasharray:1, 1; stroke:#d9d9d9;" transform="translate(54, 277.394)" d="M 0 0 L 471.24 0"/>
  <path style="stroke-width:1.0008; stroke-linecap:butt; stroke-linejoin:miter; stroke-dasharray:none; stroke:#d9d9d9;" transform="translate(54, 291.289)" d="M 0 0 L 471.24 0"/>
  <path style="stroke-width:1; stroke-linecap:butt; stroke-linejoin:miter; stroke-dasharray:1, 1; stroke:#d9d9d9;" transform="translate(54, 305.184)" d="M 0 0 L 471.24 0"/>
  <path style="stroke-width:1.0008; stroke-linecap:butt; stroke-linejoin:miter; stroke-dasharray:none; stroke:#d9d9d9;" transform="translate(54, 319.079)" d="M 0 0 L 471.24 0"/>
  <path style="stroke-width:1; stroke-linecap:butt; stroke-linejoin:miter; stroke-dasharray:1, 1; stroke:#d9d9d9;" transform="translate(54, 332.973)" d="M 0 0 L 471.24 0"/>
  <path style="stroke-width:1.0008; stroke-linecap:butt; stroke-linejoin:miter; stroke-dasharray:none; stroke:#d9d9d9;" transform="translate(54, 346.868)" d="M 0 0 L 471.24 0"/>
  <path style="stroke-width:1; stroke-linecap:butt; stroke-linejoin:miter; stroke-dasharray:1, 1; stroke:#d9d9d9;" transform="translate(54, 360.763)" d="M 0 0 L 471.24 0"/>
  <path style="stroke-width:1.0008; stroke-linecap:butt; stroke-linejoin:miter; stroke-dasharray:none; stroke:#d9d9d9;" transform="translate(54, 374.657)" d="M 0 0 L 471.24 0"/>
  <path style="stroke-width:1; stroke-linecap:butt; stroke-linejoin:miter; stroke-dasharray:1, 1; stroke:#d9d9d9;" transform="translate(54, 388.552)" d="M 0 0 L 471.24 0"/>
  <path style="stroke-width:1.0008; stroke-linecap:butt; stroke-linejoin:miter; stroke-dasharray:none; stroke:#d9d9d9;" transform="translate(54, 402.447)" d="M 0 0 L 471.24 0"/>
  <path style="stroke-width:1; stroke-linecap:butt; stroke-linejoin:miter; stroke-dasharray:1, 1; stroke:#d9d9d9;" transform="translate(54, 416.342)" d="M 0 0 L 471.24 0"/>
  <path style="stroke-width:1.0008; stroke-linecap:butt; stroke-linejoin:miter; stroke-dasharray:none; stroke:#d9d9d9;" transform="translate(54, 430.236)" d="M 0 0 L 471.24 0"/>
  <path style="stroke-width:1; stroke-linecap:butt; stroke-linejoin:miter; stroke-dasharray:1, 1; stroke:#d9d9d9;" transform="translate(54, 444.131)" d="M 0 0 L 471.24 0"/>
  <path style="stroke-width:1.0008; stroke-linecap:butt; stroke-linejoin:miter; stroke-dasharray:none; stroke:#d9d9d9;" transform="translate(54, 458.026)" d="M 0 0 L 471.24 0"/>
  <path style="stroke-width:1; stroke-linecap:butt; stroke-linejoin:miter; stroke-dasharray:1, 1; stroke:#d9d9d9;" transform="translate(54, 471.921)" d="M 0 0 L 471.24 0"/>
  <path style="stroke-width:1.0008; stroke-linecap:butt; stroke-linejoin:miter; stroke-dasharray:none; stroke:#d9d9d9;" transform="translate(54, 485.815)" d="M 0 0 L 471.24 0"/>
  <path style="stroke-width:1; stroke-linecap:butt; stroke-linejoin:miter; stroke-dasharray:1, 1; stroke:#d9d9d9;" transform="translate(54, 499.71)" d="M 0 0 L 471.24 0"/>
  <path style="stroke-width:1.0008; stroke-linecap:butt; stroke-linejoin:miter; stroke-dasharray:none; stroke:#d9d9d9;" transform="translate(54, 513.605)" d="M 0 0 L 471.24 0"/>
  <path style="stroke-width:1; stroke-linecap:butt; stroke-linejoin:miter; stroke-dasharray:1, 1; stroke:#d9d9d9;" transform="translate(54, 527.5)" d="M 0 0 L 471.24 0"/>
  <path style="stroke-width:1.0008; stroke-linecap:butt; stroke-linejoin:miter; stroke-dasharray:none; stroke:#d9d9d9;" transform="translate(54, 541.394)" d="M 0 0 L 471.24 0"/>
  <path style="stroke-width:1; stroke-linecap:butt; stroke-linejoin:miter; stroke-dasharray:1, 1; stroke:#d9d9d9;" transform="translate(54, 555.289)" d="M 0 0 L 471.24 0"/>
  <path style="stroke-width:1.0008; stroke-linecap:butt; stroke-linejoin:miter; stroke-dasharray:none; stroke:#d9d9d9;" transform="translate(54, 569.184)" d="M 0 0 L 471.24 0"/>
  <path style="stroke-width:1; stroke-linecap:butt; stroke-linejoin:miter; stroke-dasharray:1, 1; stroke:#d9d9d9;" transform="translate(54, 555.289)" d="M 0 0 L 471.24 0"/>
  <path style="stroke-width:1.0008; stroke-linecap:butt; stroke-linejoin:miter; stroke-dasharray:none; stroke:#d9d9d9;" transform="translate(54, 569.184)" d="M 0 0 L 471.24 0"/>
  <path style="stroke-width:1; stroke-linecap:butt; stroke-linejoin:miter; stroke-dasharray:1, 1; stroke:#d9d9d9;" transform="translate(54, 610.868)" d="M 0 0 L 471.24 0"/>
  <path style="stroke-width:1.0008; stroke-linecap:butt; stroke-linejoin:miter; stroke-dasharray:none; stroke:#d9d9d9;" transform="translate(54, 624.763)" d="M 0 0 L 471.24 0"/>
  <path style="stroke-width:1; stroke-linecap:butt; stroke-linejoin:miter; stroke-dasharray:1, 1; stroke:#d9d9d9;" transform="translate(54, 583.079)" d="M 0 0 L 471.24 0"/>
  <path style="stroke-width:1.0008; stroke-linecap:butt; stroke-linejoin:miter; stroke-dasharray:none; stroke:#d9d9d9;" transform="translate(54, 596.973)" d="M 0 0 L 471.24 0"/>
  <path style="stroke-width:1; stroke-linecap:butt; stroke-linejoin:miter; stroke-dasharray:1, 1; stroke:#d9d9d9;" transform="translate(54, 638.657)" d="M 0 0 L 471.24 0"/>
  <path style="stroke-width:1.0008; stroke-linecap:butt; stroke-linejoin:miter; stroke-dasharray:none; stroke:#d9d9d9;" transform="translate(54, 652.552)" d="M 0 0 L 471.24 0"/>
  <path style="stroke-width:1; stroke-linecap:butt; stroke-linejoin:miter; stroke-dasharray:1, 1; stroke:#d9d9d9;" transform="translate(54, 666.447)" d="M 0 0 L 471.24 0"/>
  <path style="stroke-width:1.0008; stroke-linecap:butt; stroke-linejoin:miter; stroke-dasharray:none; stroke:#d9d9d9;" transform="translate(54, 680.342)" d="M 0 0 L 471.24 0"/>
  <path style="stroke-width:1; stroke-linecap:butt; stroke-linejoin:miter; stroke-dasharray:1, 1; stroke:#d9d9d9;" transform="translate(54, 694.737)" d="M 0 0 L 471.24 0"/>
  <path style="stroke-width:1; stroke-linecap:butt; stroke-linejoin:miter; stroke-dasharray:1, 2; stroke:#d9d9d9;" transform="translate(546.12, 729.36) rotate(270)" d="M 0 0 L 687.935 0"/>
  <path style="stroke-width:1; stroke-linecap:butt; stroke-linejoin:miter; stroke-dasharray:1, 2; stroke:#d9d9d9;" transform="translate(546.12, 729.36) rotate(180)" d="M 0 0 L 492.12 0"/>
  <path style="stroke-width:1; stroke-linecap:butt; stroke-linejoin:miter; stroke-dasharray:1, 2; stroke:#d9d9d9;" transform="translate(556.56, 750.316) rotate(180)" d="M 0 0 L 502.56 0"/>
  <path style="stroke-width:1; stroke-linecap:butt; stroke-linejoin:miter; stroke-dasharray:1, 2; stroke:#d9d9d9;" transform="translate(567, 771.12) rotate(180)" d="M 0 0 L 513 0"/>
 </g>
 <g inkscape:label="3 Columns" id="3 Columns" inkscape:groupmode="layer">
  <path style="stroke-width:1.44; stroke-linecap:butt; stroke-linejoin:miter; stroke-dasharray:none; stroke:#c0c0bf;" transform="translate(211.075, 41.6842) rotate(90)" d="M 0 0 L 666.947 0"/>
  <path style="stroke-width:1.44; stroke-linecap:butt; stroke-linejoin:miter; stroke-dasharray:none; stroke:#c0c0bf;" transform="translate(368.15, 41.6842) rotate(90)" d="M 0 0 L 666.947 0"/>
 </g>
 <g inkscape:label="Day box" id="Day box" inkscape:groupmode="layer">
  <path style="fill:none;stroke-width:1.44; stroke-linecap:butt; stroke-linejoin:miter; stroke-dasharray:none; stroke:#757575;" transform="translate(54, 42.1842)" d="M0 0 L470.52 0 L470.52 666.447 L0 666.447 L0 0 Z"/>
 </g>
 <g inkscape:label="Time Column" id="Time Column" inkscape:groupmode="layer">
  <g transform="translate(18, 41.6842)">
   <use style="fill:#868685;stroke:none;" transform="matrix(1 0 0 1 2.25 -2.56812)" xlink:href="#GlHack-Regular556"/>
   <use style="fill:#868685;stroke:none;" transform="matrix(1 0 0 1 8.25 -2.56812)" xlink:href="#GlHack-Regular557"/>
   <use style="fill:#868685;stroke:none;" transform="matrix(1 0 0 1 14.25 -2.56812)" xlink:href="#GlHack-Regular583"/>
   <use style="fill:#868685;stroke:none;" transform="matrix(1 0 0 1 20.25 -2.56812)" xlink:href="#GlHack-Regular555"/>
   <use style="fill:#868685;stroke:none;" transform="matrix(1 0 0 1 26.25 -2.56812)" xlink:href="#GlHack-Regular555"/>
   <path style="fill:none; stroke:none;" d="M0 0 L33 0 L33 13.8947 L0 13.8947 L0 0 Z"/>
  </g>
  <g transform="translate(18, 69.4737)">
   <use style="fill:#868685;stroke:none;" transform="matrix(1 0 0 1 8.25 -2.56812)" xlink:href="#GlHack-Regular556"/>
   <use style="fill:#868685;stroke:none;" transform="matrix(1 0 0 1 14.25 -2.56812)" xlink:href="#GlHack-Regular583"/>
   <use style="fill:#868685;stroke:none;" transform="matrix(1 0 0 1 20.25 -2.56812)" xlink:href="#GlHack-Regular555"/>
   <use style="fill:#868685;stroke:none;" transform="matrix(1 0 0 1 26.25 -2.56812)" xlink:href="#GlHack-Regular555"/>
   <path style="fill:none; stroke:none;" d="M0 0 L33 0 L33 13.8947 L0 13.8947 L0 0 Z"/>
  </g>
  <g transform="translate(18, 97.2632)">
   <use style="fill:#868685;stroke:none;" transform="matrix(1 0 0 1 8.25 -2.57813)" xlink:href="#GlHack-Regular557"/>
   <use style="fill:#868685;stroke:none;" transform="matrix(1 0 0 1 14.25 -2.57813)" xlink:href="#GlHack-Regular583"/>
   <use style="fill:#868685;stroke:none;" transform="matrix(1 0 0 1 20.25 -2.57813)" xlink:href="#GlHack-Regular555"/>
   <use style="fill:#868685;stroke:none;" transform="matrix(1 0 0 1 26.25 -2.57813)" xlink:href="#GlHack-Regular555"/>
   <path style="fill:none; stroke:none;" d="M0 0 L33 0 L33 13.8947 L0 13.8947 L0 0 Z"/>
  </g>
  <g transform="translate(18, 125.053)">
   <use style="fill:#868685;stroke:none;" transform="matrix(1 0 0 1 8.25 -2.57813)" xlink:href="#GlHack-Regular558"/>
   <use style="fill:#868685;stroke:none;" transform="matrix(1 0 0 1 14.25 -2.57813)" xlink:href="#GlHack-Regular583"/>
   <use style="fill:#868685;stroke:none;" transform="matrix(1 0 0 1 20.25 -2.57813)" xlink:href="#GlHack-Regular555"/>
   <use style="fill:#868685;stroke:none;" transform="matrix(1 0 0 1 26.25 -2.57813)" xlink:href="#GlHack-Regular555"/>
   <path style="fill:none; stroke:none;" d="M0 0 L33 0 L33 13.8947 L0 13.8947 L0 0 Z"/>
  </g>
  <g transform="translate(18, 152.842)">
   <use style="fill:#868685;stroke:none;" transform="matrix(1 0 0 1 8.25 -2.56812)" xlink:href="#GlHack-Regular559"/>
   <use style="fill:#868685;stroke:none;" transform="matrix(1 0 0 1 14.25 -2.56812)" xlink:href="#GlHack-Regular583"/>
   <use style="fill:#868685;stroke:none;" transform="matrix(1 0 0 1 20.25 -2.56812)" xlink:href="#GlHack-Regular555"/>
   <use style="fill:#868685;stroke:none;" transform="matrix(1 0 0 1 26.25 -2.56812)" xlink:href="#GlHack-Regular555"/>
   <path style="fill:none; stroke:none;" d="M0 0 L33 0 L33 13.8947 L0 13.8947 L0 0 Z"/>
  </g>
  <g transform="translate(18, 180.632)">
   <use style="fill:#868685;stroke:none;" transform="matrix(1 0 0 1 8.25 -2.56812)" xlink:href="#GlHack-Regular560"/>
   <use style="fill:#868685;stroke:none;" transform="matrix(1 0 0 1 14.25 -2.56812)" xlink:href="#GlHack-Regular583"/>
   <use style="fill:#868685;stroke:none;" transform="matrix(1 0 0 1 20.25 -2.56812)" xlink:href="#GlHack-Regular555"/>
   <use style="fill:#868685;stroke:none;" transform="matrix(1 0 0 1 26.25 -2.56812)" xlink:href="#GlHack-Regular555"/>
   <path style="fill:none; stroke:none;" d="M0 0 L33 0 L33 13.8947 L0 13.8947 L0 0 Z"/>
  </g>
  <g transform="translate(18, 208.421)">
   <use style="fill:#868685;stroke:none;" transform="matrix(1 0 0 1 8.25 -2.57813)" xlink:href="#GlHack-Regular561"/>
   <use style="fill:#868685;stroke:none;" transform="matrix(1 0 0 1 14.25 -2.57813)" xlink:href="#GlHack-Regular583"/>
   <use style="fill:#868685;stroke:none;" transform="matrix(1 0 0 1 20.25 -2.57813)" xlink:href="#GlHack-Regular555"/>
   <use style="fill:#868685;stroke:none;" transform="matrix(1 0 0 1 26.25 -2.57813)" xlink:href="#GlHack-Regular555"/>
   <path style="fill:none; stroke:none;" d="M0 0 L33 0 L33 13.8947 L0 13.8947 L0 0 Z"/>
  </g>
  <g transform="translate(18, 236.211)">
   <use style="fill:#868685;stroke:none;" transform="matrix(1 0 0 1 8.25 -2.56812)" xlink:href="#GlHack-Regular562"/>
   <use style="fill:#868685;stroke:none;" transform="matrix(1 0 0 1 14.25 -2.56812)" xlink:href="#GlHack-Regular583"/>
   <use style="fill:#868685;stroke:none;" transform="matrix(1 0 0 1 20.25 -2.56812)" xlink:href="#GlHack-Regular555"/>
   <use style="fill:#868685;stroke:none;" transform="matrix(1 0 0 1 26.25 -2.56812)" xlink:href="#GlHack-Regular555"/>
   <path style="fill:none; stroke:none;" d="M0 0 L33 0 L33 13.8947 L0 13.8947 L0 0 Z"/>
  </g>
  <g transform="translate(18, 264)">
   <use style="fill:#868685;stroke:none;" transform="matrix(1 0 0 1 8.25 -2.57813)" xlink:href="#GlHack-Regular563"/>
   <use style="fill:#868685;stroke:none;" transform="matrix(1 0 0 1 14.25 -2.57813)" xlink:href="#GlHack-Regular583"/>
   <use style="fill:#868685;stroke:none;" transform="matrix(1 0 0 1 20.25 -2.57813)" xlink:href="#GlHack-Regular555"/>
   <use style="fill:#868685;stroke:none;" transform="matrix(1 0 0 1 26.25 -2.57813)" xlink:href="#GlHack-Regular555"/>
   <path style="fill:none; stroke:none;" d="M0 0 L33 0 L33 13.8947 L0 13.8947 L0 0 Z"/>
  </g>
  <g transform="translate(18, 291.789)">
   <use style="fill:#868685;stroke:none;" transform="matrix(1 0 0 1 8.25 -2.57813)" xlink:href="#GlHack-Regular564"/>
   <use style="fill:#868685;stroke:none;" transform="matrix(1 0 0 1 14.25 -2.57813)" xlink:href="#GlHack-Regular583"/>
   <use style="fill:#868685;stroke:none;" transform="matrix(1 0 0 1 20.25 -2.57813)" xlink:href="#GlHack-Regular555"/>
   <use style="fill:#868685;stroke:none;" transform="matrix(1 0 0 1 26.25 -2.57813)" xlink:href="#GlHack-Regular555"/>
   <path style="fill:none; stroke:none;" d="M0 0 L33 0 L33 13.8947 L0 13.8947 L0 0 Z"/>
  </g>
  <g transform="translate(18, 319.579)">
   <use style="fill:#868685;stroke:none;" transform="matrix(1 0 0 1 2.25 -2.56812)" xlink:href="#GlHack-Regular556"/>
   <use style="fill:#868685;stroke:none;" transform="matrix(1 0 0 1 8.25 -2.56812)" xlink:href="#GlHack-Regular555"/>
   <use style="fill:#868685;stroke:none;" transform="matrix(1 0 0 1 14.25 -2.56812)" xlink:href="#GlHack-Regular583"/>
   <use style="fill:#868685;stroke:none;" transform="matrix(1 0 0 1 20.25 -2.56812)" xlink:href="#GlHack-Regular555"/>
   <use style="fill:#868685;stroke:none;" transform="matrix(1 0 0 1 26.25 -2.56812)" xlink:href="#GlHack-Regular555"/>
   <path style="fill:none; stroke:none;" d="M0 0 L33 0 L33 13.8947 L0 13.8947 L0 0 Z"/>
  </g>
  <g transform="translate(18, 347.368)">
   <use style="fill:#868685;stroke:none;" transform="matrix(1 0 0 1 2.25 -2.56812)" xlink:href="#GlHack-Regular556"/>
   <use style="fill:#868685;stroke:none;" transform="matrix(1 0 0 1 8.25 -2.56812)" xlink:href="#GlHack-Regular556"/>
   <use style="fill:#868685;stroke:none;" transform="matrix(1 0 0 1 14.25 -2.56812)" xlink:href="#GlHack-Regular583"/>
   <use style="fill:#868685;stroke:none;" transform="matrix(1 0 0 1 20.25 -2.56812)" xlink:href="#GlHack-Regular555"/>
   <use style="fill:#868685;stroke:none;" transform="matrix(1 0 0 1 26.25 -2.56812)" xlink:href="#GlHack-Regular555"/>
   <path style="fill:none; stroke:none;" d="M0 0 L33 0 L33 13.8947 L0 13.8947 L0 0 Z"/>
  </g>
  <g transform="translate(18, 375.158)">
   <use style="fill:#868685;stroke:none;" transform="matrix(1 0 0 1 2.25 -2.56812)" xlink:href="#GlHack-Regular556"/>
   <use style="fill:#868685;stroke:none;" transform="matrix(1 0 0 1 8.25 -2.56812)" xlink:href="#GlHack-Regular557"/>
   <use style="fill:#868685;stroke:none;" transform="matrix(1 0 0 1 14.25 -2.56812)" xlink:href="#GlHack-Regular583"/>
   <use style="fill:#868685;stroke:none;" transform="matrix(1 0 0 1 20.25 -2.56812)" xlink:href="#GlHack-Regular555"/>
   <use style="fill:#868685;stroke:none;" transform="matrix(1 0 0 1 26.25 -2.56812)" xlink:href="#GlHack-Regular555"/>
   <path style="fill:none; stroke:none;" d="M0 0 L33 0 L33 13.8947 L0 13.8947 L0 0 Z"/>
  </g>
  <g transform="translate(18, 402.947)">
   <use style="fill:#868685;stroke:none;" transform="matrix(1 0 0 1 8.25 -2.56812)" xlink:href="#GlHack-Regular556"/>
   <use style="fill:#868685;stroke:none;" transform="matrix(1 0 0 1 14.25 -2.56812)" xlink:href="#GlHack-Regular583"/>
   <use style="fill:#868685;stroke:none;" transform="matrix(1 0 0 1 20.25 -2.56812)" xlink:href="#GlHack-Regular555"/>
   <use style="fill:#868685;stroke:none;" transform="matrix(1 0 0 1 26.25 -2.56812)" xlink:href="#GlHack-Regular555"/>
   <path style="fill:none; stroke:none;" d="M0 0 L33 0 L33 13.8947 L0 13.8947 L0 0 Z"/>
  </g>
  <g transform="translate(18, 430.737)">
   <use style="fill:#868685;stroke:none;" transform="matrix(1 0 0 1 8.25 -2.57813)" xlink:href="#GlHack-Regular557"/>
   <use style="fill:#868685;stroke:none;" transform="matrix(1 0 0 1 14.25 -2.57813)" xlink:href="#GlHack-Regular583"/>
   <use style="fill:#868685;stroke:none;" transform="matrix(1 0 0 1 20.25 -2.57813)" xlink:href="#GlHack-Regular555"/>
   <use style="fill:#868685;stroke:none;" transform="matrix(1 0 0 1 26.25 -2.57813)" xlink:href="#GlHack-Regular555"/>
   <path style="fill:none; stroke:none;" d="M0 0 L33 0 L33 13.8947 L0 13.8947 L0 0 Z"/>
  </g>
  <g transform="translate(18, 458.526)">
   <use style="fill:#868685;stroke:none;" transform="matrix(1 0 0 1 8.25 -2.57813)" xlink:href="#GlHack-Regular558"/>
   <use style="fill:#868685;stroke:none;" transform="matrix(1 0 0 1 14.25 -2.57813)" xlink:href="#GlHack-Regular583"/>
   <use style="fill:#868685;stroke:none;" transform="matrix(1 0 0 1 20.25 -2.57813)" xlink:href="#GlHack-Regular555"/>
   <use style="fill:#868685;stroke:none;" transform="matrix(1 0 0 1 26.25 -2.57813)" xlink:href="#GlHack-Regular555"/>
   <path style="fill:none; stroke:none;" d="M0 0 L33 0 L33 13.8947 L0 13.8947 L0 0 Z"/>
  </g>
  <g transform="translate(18, 486.316)">
   <use style="fill:#868685;stroke:none;" transform="matrix(1 0 0 1 8.25 -2.56812)" xlink:href="#GlHack-Regular559"/>
   <use style="fill:#868685;stroke:none;" transform="matrix(1 0 0 1 14.25 -2.56812)" xlink:href="#GlHack-Regular583"/>
   <use style="fill:#868685;stroke:none;" transform="matrix(1 0 0 1 20.25 -2.56812)" xlink:href="#GlHack-Regular555"/>
   <use style="fill:#868685;stroke:none;" transform="matrix(1 0 0 1 26.25 -2.56812)" xlink:href="#GlHack-Regular555"/>
   <path style="fill:none; stroke:none;" d="M0 0 L33 0 L33 13.8947 L0 13.8947 L0 0 Z"/>
  </g>
  <g transform="translate(18, 514.105)">
   <use style="fill:#868685;stroke:none;" transform="matrix(1 0 0 1 8.25 -2.56812)" xlink:href="#GlHack-Regular560"/>
   <use style="fill:#868685;stroke:none;" transform="matrix(1 0 0 1 14.25 -2.56812)" xlink:href="#GlHack-Regular583"/>
   <use style="fill:#868685;stroke:none;" transform="matrix(1 0 0 1 20.25 -2.56812)" xlink:href="#GlHack-Regular555"/>
   <use style="fill:#868685;stroke:none;" transform="matrix(1 0 0 1 26.25 -2.56812)" xlink:href="#GlHack-Regular555"/>
   <path style="fill:none; stroke:none;" d="M0 0 L33 0 L33 13.8947 L0 13.8947 L0 0 Z"/>
  </g>
  <g transform="translate(18, 541.895)">
   <use style="fill:#868685;stroke:none;" transform="matrix(1 0 0 1 8.25 -2.57813)" xlink:href="#GlHack-Regular561"/>
   <use style="fill:#868685;stroke:none;" transform="matrix(1 0 0 1 14.25 -2.57813)" xlink:href="#GlHack-Regular583"/>
   <use style="fill:#868685;stroke:none;" transform="matrix(1 0 0 1 20.25 -2.57813)" xlink:href="#GlHack-Regular555"/>
   <use style="fill:#868685;stroke:none;" transform="matrix(1 0 0 1 26.25 -2.57813)" xlink:href="#GlHack-Regular555"/>
   <path style="fill:none; stroke:none;" d="M0 0 L33 0 L33 13.8947 L0 13.8947 L0 0 Z"/>
  </g>
  <g transform="translate(18, 569.684)">
   <use style="fill:#868685;stroke:none;" transform="matrix(1 0 0 1 8.25 -2.56812)" xlink:href="#GlHack-Regular562"/>
   <use style="fill:#868685;stroke:none;" transform="matrix(1 0 0 1 14.25 -2.56812)" xlink:href="#GlHack-Regular583"/>
   <use style="fill:#868685;stroke:none;" transform="matrix(1 0 0 1 20.25 -2.56812)" xlink:href="#GlHack-Regular555"/>
   <use style="fill:#868685;stroke:none;" transform="matrix(1 0 0 1 26.25 -2.56812)" xlink:href="#GlHack-Regular555"/>
   <path style="fill:none; stroke:none;" d="M0 0 L33 0 L33 13.8947 L0 13.8947 L0 0 Z"/>
  </g>
  <g transform="translate(18, 597.474)">
   <use style="fill:#868685;stroke:none;" transform="matrix(1 0 0 1 8.25 -2.57813)" xlink:href="#GlHack-Regular563"/>
   <use style="fill:#868685;stroke:none;" transform="matrix(1 0 0 1 14.25 -2.57813)" xlink:href="#GlHack-Regular583"/>
   <use style="fill:#868685;stroke:none;" transform="matrix(1 0 0 1 20.25 -2.57813)" xlink:href="#GlHack-Regular555"/>
   <use style="fill:#868685;stroke:none;" transform="matrix(1 0 0 1 26.25 -2.57813)" xlink:href="#GlHack-Regular555"/>
   <path style="fill:none; stroke:none;" d="M0 0 L33 0 L33 13.8947 L0 13.8947 L0 0 Z"/>
  </g>
  <g transform="translate(18, 625.263)">
   <use style="fill:#868685;stroke:none;" transform="matrix(1 0 0 1 8.25 -2.57813)" xlink:href="#GlHack-Regular564"/>
   <use style="fill:#868685;stroke:none;" transform="matrix(1 0 0 1 14.25 -2.57813)" xlink:href="#GlHack-Regular583"/>
   <use style="fill:#868685;stroke:none;" transform="matrix(1 0 0 1 20.25 -2.57813)" xlink:href="#GlHack-Regular555"/>
   <use style="fill:#868685;stroke:none;" transform="matrix(1 0 0 1 26.25 -2.57813)" xlink:href="#GlHack-Regular555"/>
   <path style="fill:none; stroke:none;" d="M0 0 L33 0 L33 13.8947 L0 13.8947 L0 0 Z"/>
  </g>
  <g transform="translate(18, 653.053)">
   <use style="fill:#868685;stroke:none;" transform="matrix(1 0 0 1 2.25 -2.56812)" xlink:href="#GlHack-Regular556"/>
   <use style="fill:#868685;stroke:none;" transform="matrix(1 0 0 1 8.25 -2.56812)" xlink:href="#GlHack-Regular555"/>
   <use style="fill:#868685;stroke:none;" transform="matrix(1 0 0 1 14.25 -2.56812)" xlink:href="#GlHack-Regular583"/>
   <use style="fill:#868685;stroke:none;" transform="matrix(1 0 0 1 20.25 -2.56812)" xlink:href="#GlHack-Regular555"/>
   <use style="fill:#868685;stroke:none;" transform="matrix(1 0 0 1 26.25 -2.56812)" xlink:href="#GlHack-Regular555"/>
   <path style="fill:none; stroke:none;" d="M0 0 L33 0 L33 13.8947 L0 13.8947 L0 0 Z"/>
  </g>
  <g transform="translate(18, 680.842)">
   <use style="fill:#868685;stroke:none;" transform="matrix(1 0 0 1 2.25 -2.56812)" xlink:href="#GlHack-Regular556"/>
   <use style="fill:#868685;stroke:none;" transform="matrix(1 0 0 1 8.25 -2.56812)" xlink:href="#GlHack-Regular556"/>
   <use style="fill:#868685;stroke:none;" transform="matrix(1 0 0 1 14.25 -2.56812)" xlink:href="#GlHack-Regular583"/>
   <use style="fill:#868685;stroke:none;" transform="matrix(1 0 0 1 20.25 -2.56812)" xlink:href="#GlHack-Regular555"/>
   <use style="fill:#868685;stroke:none;" transform="matrix(1 0 0 1 26.25 -2.56812)" xlink:href="#GlHack-Regular555"/>
   <path style="fill:none; stroke:none;" d="M0 0 L33 0 L33 13.8947 L0 13.8947 L0 0 Z"/>
  </g>
 </g>
</svg>
