<?xml version="1.0" encoding="UTF-8"?>
<svg xmlns:inkscape="http://www.inkscape.org/namespaces/inkscape" xmlns:xlink="http://www.w3.org/1999/xlink" viewBox="0 0 612 792" xmlns="http://www.w3.org/2000/svg" height="792pt" version="1.1" width="612pt">
 <defs/>
 <g inkscape:groupmode="layer" inkscape:label="Background" id="Background"/>
 <g inkscape:groupmode="layer" inkscape:label="Lines" id="Lines">
  <path transform="translate(0, 99.36)" d="M 0 0 L 612 0" style="stroke-width:1; stroke-linecap:butt; stroke-linejoin:miter; stroke-dasharray:none; stroke:#171615;"/>
  <path transform="translate(0, 119.36)" d="M 0 0 L 612 0" style="stroke-width:1; stroke-linecap:butt; stroke-linejoin:miter; stroke-dasharray:none; stroke:#171615;"/>
  <path transform="translate(0, 139.14)" d="M 0 0 L 612 0" style="stroke-width:1; stroke-linecap:butt; stroke-linejoin:miter; stroke-dasharray:none; stroke:#171615;"/>
  <path transform="translate(0, 158.832)" d="M 0 0 L 612 0" style="stroke-width:1; stroke-linecap:butt; stroke-linejoin:miter; stroke-dasharray:none; stroke:#171615;"/>
  <path transform="translate(0, 178.776)" d="M 0 0 L 612 0" style="stroke-width:1; stroke-linecap:butt; stroke-linejoin:miter; stroke-dasharray:none; stroke:#171615;"/>
  <path transform="translate(0, 198.432)" d="M 0 0 L 612 0" style="stroke-width:1; stroke-linecap:butt; stroke-linejoin:miter; stroke-dasharray:none; stroke:#171615;"/>
  <path transform="translate(0, 218.304)" d="M 0 0 L 612 0" style="stroke-width:1; stroke-linecap:butt; stroke-linejoin:miter; stroke-dasharray:none; stroke:#171615;"/>
  <path transform="translate(0, 238.304)" d="M 0 0 L 612 0" style="stroke-width:1; stroke-linecap:butt; stroke-linejoin:miter; stroke-dasharray:none; stroke:#171615;"/>
  <path transform="translate(0, 258.084)" d="M 0 0 L 612 0" style="stroke-width:1; stroke-linecap:butt; stroke-linejoin:miter; stroke-dasharray:none; stroke:#171615;"/>
  <path transform="translate(0, 277.776)" d="M 0 0 L 612 0" style="stroke-width:1; stroke-linecap:butt; stroke-linejoin:miter; stroke-dasharray:none; stroke:#171615;"/>
  <path transform="translate(0, 297.72)" d="M 0 0 L 612 0" style="stroke-width:1; stroke-linecap:butt; stroke-linejoin:miter; stroke-dasharray:none; stroke:#171615;"/>
  <path transform="translate(0, 317.376)" d="M 0 0 L 612 0" style="stroke-width:1; stroke-linecap:butt; stroke-linejoin:miter; stroke-dasharray:none; stroke:#171615;"/>
  <path transform="translate(0, 336.96)" d="M 0 0 L 612 0" style="stroke-width:1; stroke-linecap:butt; stroke-linejoin:miter; stroke-dasharray:none; stroke:#171615;"/>
  <path transform="translate(0, 356.96)" d="M 0 0 L 612 0" style="stroke-width:1; stroke-linecap:butt; stroke-linejoin:miter; stroke-dasharray:none; stroke:#171615;"/>
  <path transform="translate(0, 376.74)" d="M 0 0 L 612 0" style="stroke-width:1; stroke-linecap:butt; stroke-linejoin:miter; stroke-dasharray:none; stroke:#171615;"/>
  <path transform="translate(0, 396.432)" d="M 0 0 L 612 0" style="stroke-width:1; stroke-linecap:butt; stroke-linejoin:miter; stroke-dasharray:none; stroke:#171615;"/>
  <path transform="translate(0, 416.376)" d="M 0 0 L 612 0" style="stroke-width:1; stroke-linecap:butt; stroke-linejoin:miter; stroke-dasharray:none; stroke:#171615;"/>
  <path transform="translate(0, 436.032)" d="M 0 0 L 612 0" style="stroke-width:1; stroke-linecap:butt; stroke-linejoin:miter; stroke-dasharray:none; stroke:#171615;"/>
  <path transform="translate(0, 455.904)" d="M 0 0 L 612 0" style="stroke-width:1; stroke-linecap:butt; stroke-linejoin:miter; stroke-dasharray:none; stroke:#171615;"/>
  <path transform="translate(0, 475.904)" d="M 0 0 L 612 0" style="stroke-width:1; stroke-linecap:butt; stroke-linejoin:miter; stroke-dasharray:none; stroke:#171615;"/>
  <path transform="translate(0, 495.684)" d="M 0 0 L 612 0" style="stroke-width:1; stroke-linecap:butt; stroke-linejoin:miter; stroke-dasharray:none; stroke:#171615;"/>
  <path transform="translate(0, 515.376)" d="M 0 0 L 612 0" style="stroke-width:1; stroke-linecap:butt; stroke-linejoin:miter; stroke-dasharray:none; stroke:#171615;"/>
  <path transform="translate(0, 535.32)" d="M 0 0 L 612 0" style="stroke-width:1; stroke-linecap:butt; stroke-linejoin:miter; stroke-dasharray:none; stroke:#171615;"/>
  <path transform="translate(0, 554.976)" d="M 0 0 L 612 0" style="stroke-width:1; stroke-linecap:butt; stroke-linejoin:miter; stroke-dasharray:none; stroke:#171615;"/>
  <path transform="translate(0, 574.776)" d="M 0 0 L 612 0" style="stroke-width:1; stroke-linecap:butt; stroke-linejoin:miter; stroke-dasharray:none; stroke:#171615;"/>
  <path transform="translate(0, 594.776)" d="M 0 0 L 612 0" style="stroke-width:1; stroke-linecap:butt; stroke-linejoin:miter; stroke-dasharray:none; stroke:#171615;"/>
  <path transform="translate(0, 614.556)" d="M 0 0 L 612 0" style="stroke-width:1; stroke-linecap:butt; stroke-linejoin:miter; stroke-dasharray:none; stroke:#171615;"/>
  <path transform="translate(0, 634.248)" d="M 0 0 L 612 0" style="stroke-width:1; stroke-linecap:butt; stroke-linejoin:miter; stroke-dasharray:none; stroke:#171615;"/>
  <path transform="translate(0, 654.192)" d="M 0 0 L 612 0" style="stroke-width:1; stroke-linecap:butt; stroke-linejoin:miter; stroke-dasharray:none; stroke:#171615;"/>
  <path transform="translate(0, 673.848)" d="M 0 0 L 612 0" style="stroke-width:1; stroke-linecap:butt; stroke-linejoin:miter; stroke-dasharray:none; stroke:#171615;"/>
  <path transform="translate(0, 693.72)" d="M 0 0 L 612 0" style="stroke-width:1; stroke-linecap:butt; stroke-linejoin:miter; stroke-dasharray:none; stroke:#171615;"/>
  <path transform="translate(0, 713.72)" d="M 0 0 L 612 0" style="stroke-width:1; stroke-linecap:butt; stroke-linejoin:miter; stroke-dasharray:none; stroke:#171615;"/>
  <path transform="translate(0, 733.5)" d="M 0 0 L 612 0" style="stroke-width:1; stroke-linecap:butt; stroke-linejoin:miter; stroke-dasharray:none; stroke:#171615;"/>
  <path transform="translate(0, 753.192)" d="M 0 0 L 612 0" style="stroke-width:1; stroke-linecap:butt; stroke-linejoin:miter; stroke-dasharray:none; stroke:#171615;"/>
  <path transform="translate(0, 773.136)" d="M 0 0 L 612 0" style="stroke-width:1; stroke-linecap:butt; stroke-linejoin:miter; stroke-dasharray:none; stroke:#171615;"/>
 </g>
 <g inkscape:groupmode="layer" inkscape:label="Margin" id="Margin">
  <path transform="translate(86.4, 0) rotate(90)" d="M 0 0 L 792 0" style="stroke-width:1; stroke-linecap:butt; stroke-linejoin:miter; stroke-dasharray:none; stroke:#9c9c9b;"/>
  <path transform="translate(90, 0) rotate(90)" d="M 0 0 L 792 0" style="stroke-width:1; stroke-linecap:butt; stroke-linejoin:miter; stroke-dasharray:none; stroke:#9c9c9b;"/>
 </g>
</svg>
